<svg xmlns="http://www.w3.org/2000/svg" width="900" height="430"><rect width="100%" height="100%" fill="white"/><style>text{font-family:Arial;fill:#222}.t{font-size:26px;font-weight:bold}.l{font-size:15px}.v{font-size:13px;font-weight:bold}.b1{fill:#2563eb}.b2{fill:#60a5fa}.b3{fill:#bfdbfe}</style><text x="40" y="40" class="t">Synthetic anomaly benchmark</text><text x="40" y="85" class="l">Isolation Forest</text><rect x="190" y="70" width="620" height="14" class="b1"/><rect x="190" y="88" width="557" height="14" class="b2"/><rect x="190" y="106" width="508" height="14" class="b3"/><text x="818" y="82" class="v">ROC 0.997</text><text x="755" y="100" class="v">PR 0.896</text><text x="706" y="118" class="v">F1 0.817</text><text x="40" y="165" class="l">Ensemble</text><rect x="190" y="150" width="619" height="14" class="b1"/><rect x="190" y="168" width="520" height="14" class="b2"/><rect x="190" y="186" width="410" height="14" class="b3"/><text x="817" y="162" class="v">0.995</text><text x="718" y="180" class="v">0.837</text><text x="608" y="198" class="v">0.661</text><text x="40" y="245" class="l">One-Class SVM</text><rect x="190" y="230" width="589" height="14" class="b1"/><rect x="190" y="248" width="160" height="14" class="b2"/><rect x="190" y="266" width="254" height="14" class="b3"/><text x="787" y="242" class="v">0.948</text><text x="358" y="260" class="v">0.257</text><text x="452" y="278" class="v">0.409</text><text x="40" y="325" class="l">LOF</text><rect x="190" y="310" width="588" height="14" class="b1"/><rect x="190" y="328" width="156" height="14" class="b2"/><rect x="190" y="346" width="249" height="14" class="b3"/><text x="786" y="322" class="v">0.947</text><text x="354" y="340" class="v">0.251</text><text x="447" y="358" class="v">0.401</text><text x="40" y="405" class="l">Autoencoder</text><rect x="190" y="390" width="561" height="14" class="b1"/><rect x="190" y="408" width="98" height="14" class="b2"/><rect x="190" y="426" width="157" height="14" class="b3"/></svg>